<svg xmlns="http://www.w3.org/2000/svg" width="1600" height="900" viewBox="0 0 1600 900">
  <defs>
    <linearGradient id="bg" x1="0" y1="0" x2="1" y2="1">
      <stop offset="0%" stop-color="#0B1120" />
      <stop offset="100%" stop-color="#0F172A" />
    </linearGradient>
    <linearGradient id="accent" x1="0" y1="0" x2="1" y2="0">
      <stop offset="0%" stop-color="#4F46E5" />
      <stop offset="100%" stop-color="#9333EA" />
    </linearGradient>
  </defs>
  <rect width="1600" height="900" fill="url(#bg)" />
  <rect width="1600" height="10" fill="#4F46E5" />
  <rect y="10" width="1600" height="10" fill="#9333EA" />
  <circle cx="150" cy="120" r="160" fill="#2a3562" opacity="0.6" />
  <circle cx="1450" cy="820" r="180" fill="#3b1d55" opacity="0.5" />

  <text x="80" y="170" fill="#F1F5FF" font-size="48" font-family="Segoe UI, Arial">Dashboard Overview</text>
  <text x="80" y="230" fill="#AAB4CC" font-size="24" font-family="Segoe UI, Arial">KPI Highlights</text>

  <rect x="80" y="270" rx="24" ry="24" width="320" height="48" fill="#182036" stroke="#4B5563" />
  <text x="100" y="302" fill="#D7E0F5" font-size="20" font-family="Segoe UI, Arial">Decision Velocity</text>

  <rect x="80" y="360" rx="16" ry="16" width="680" height="60" fill="#172033" stroke="#2E3A55" />
  <rect x="80" y="450" rx="16" ry="16" width="680" height="60" fill="#172033" stroke="#2E3A55" />
  <rect x="80" y="540" rx="16" ry="16" width="680" height="60" fill="#172033" stroke="#2E3A55" />

  <rect x="880" y="360" rx="16" ry="16" width="240" height="180" fill="#172033" stroke="#2E3A55" />
  <rect x="1180" y="360" rx="16" ry="16" width="240" height="180" fill="#172033" stroke="#2E3A55" />
  <rect x="880" y="580" rx="16" ry="16" width="540" height="180" fill="#172033" stroke="#2E3A55" />

  <text x="80" y="860" fill="#AAB4CC" font-size="18" font-family="Segoe UI, Arial">Figure: Dashboard Overview</text>
</svg>
